<svg version="1.1" id="Layer_1" xmlns="http://www.w3.org/2000/svg" xmlns:xlink="http://www.w3.org/1999/xlink" x="0px" y="0px"
	 width="100%" viewBox="0 0 385 131" enable-background="new 0 0 385 131" xml:space="preserve">
<path fill="#FDFDFD" opacity="1.000000" stroke="none" 
	d="
M251.000000,132.000000 
	C167.333359,132.000000 84.166710,132.000000 1.000045,132.000000 
	C1.000030,88.333366 1.000030,44.666729 1.000015,1.000068 
	C129.333267,1.000045 257.666534,1.000045 385.999878,1.000023 
	C385.999908,44.666595 385.999908,88.333191 385.999939,131.999893 
	C341.166656,132.000000 296.333344,132.000000 251.000000,132.000000 
M56.445293,44.319828 
	C56.519794,44.733288 56.594296,45.146744 56.668793,45.560200 
	C57.117680,45.058525 57.566566,44.556850 57.870121,43.640705 
	C57.532516,43.742233 57.194912,43.843758 56.445293,44.319828 
M21.992819,54.295433 
	C21.553293,53.748329 21.113768,53.201225 20.674242,52.654121 
	C20.453470,53.434475 20.232698,54.214828 19.478687,54.997242 
	C19.123392,55.004070 18.768097,55.010902 18.169029,54.324314 
	C18.087898,53.596252 18.006765,52.868187 18.328352,51.567326 
	C19.890871,51.050434 21.453390,50.533546 23.562923,50.472042 
	C24.644003,53.243893 25.725082,56.015743 26.806164,58.787598 
	C26.961752,55.714542 26.845705,52.624241 26.185209,49.655056 
	C26.017300,48.900246 24.119091,48.530346 22.344852,47.982025 
	C20.230007,48.654736 18.115160,49.327446 15.398667,50.245243 
	C14.598076,51.144764 13.797485,52.044285 12.276398,53.010605 
	C10.845504,54.307968 9.414610,55.605331 7.349380,57.184162 
	C7.548738,58.579674 7.748096,59.975185 7.607080,61.948975 
	C8.186634,63.172413 8.493327,65.024529 9.427838,65.430130 
	C10.247892,65.786049 11.771935,64.519958 13.056328,63.487656 
	C13.056328,63.487656 12.958814,63.009598 13.482638,63.008060 
	C13.657214,63.004669 13.831790,63.001282 14.593852,63.307034 
	C14.969674,63.800354 15.345496,64.293671 15.721322,64.786987 
	C16.209312,63.849678 16.697302,62.912369 17.559967,62.011444 
	C17.559967,62.011444 17.936209,62.023705 18.280661,62.635723 
	C19.827103,63.807137 21.373545,64.978554 22.919985,66.149963 
	C23.329597,65.860817 23.739208,65.571671 24.148821,65.282516 
	C23.766808,63.848335 23.384792,62.414146 23.013069,60.501312 
	C23.013069,60.501312 23.021030,60.022110 23.046051,59.240273 
	C22.723808,57.800983 22.401567,56.361698 21.992819,54.295433 
M46.983650,41.845909 
	C47.095188,43.760391 47.206722,45.674873 47.318260,47.589355 
	C47.686947,47.557945 48.055637,47.526535 48.424328,47.495121 
	C48.285084,45.329979 48.145840,43.164837 48.001419,40.269733 
	C47.678783,39.176334 47.356152,38.082939 47.028500,36.130135 
	C46.885963,34.233257 46.743427,32.336376 46.600887,30.439497 
	C46.067207,30.470434 45.533527,30.501371 44.999847,30.532309 
	C44.999847,32.688206 44.999847,34.844105 45.094597,37.657749 
	C45.727444,38.771732 46.360287,39.885712 46.983650,41.845909 
M65.640694,30.047300 
	C66.008324,30.103031 66.375961,30.158764 67.040413,30.746048 
	C67.679817,31.522238 68.319221,32.298428 68.966042,33.826534 
	C68.160797,36.076462 67.355560,38.326389 66.550316,40.576321 
	C68.109016,38.348667 75.398766,39.581963 71.141945,33.284740 
	C74.731468,28.791235 69.658409,28.728777 67.207596,26.996298 
	C65.789047,27.942081 64.370506,28.887867 62.395058,29.955284 
	C62.604790,30.479202 62.814522,31.003120 63.024258,31.527037 
	C63.709671,31.023357 64.395081,30.519680 65.640694,30.047300 
M111.930763,106.551872 
	C111.803680,106.523956 111.676605,106.496048 111.549522,106.468132 
	C111.642700,106.693199 111.735870,106.918259 111.409660,107.686790 
	C108.907471,109.772606 109.890167,111.287903 111.469093,112.705597 
	C112.007385,112.632370 112.545685,112.559143 113.083977,112.485916 
	C112.771591,110.598633 112.459198,108.711349 111.930763,106.551872 
M54.991955,33.647408 
	C56.129486,34.306522 57.267017,34.965637 58.404549,35.624752 
	C58.622952,34.980885 58.841354,34.337013 59.059757,33.693142 
	C57.705578,33.463009 56.351402,33.232872 54.969334,32.309883 
	C53.891056,27.906349 51.432953,30.037413 48.687950,30.848351 
	C49.764412,32.553307 50.590858,33.862278 51.769630,35.729279 
	C51.769630,33.925137 51.769630,32.726517 51.769630,31.406912 
	C53.023743,32.023743 54.013306,32.510452 54.991955,33.647408 
M42.838444,46.474632 
	C42.699093,46.255135 42.507675,46.099800 42.130207,45.079445 
	C42.314648,38.355541 42.577793,31.631918 42.601929,24.907438 
	C42.605717,23.852369 41.524681,22.793406 40.988018,21.620871 
	C40.988018,21.620871 41.041859,21.510239 41.006859,20.805729 
	C40.486126,19.808714 39.965393,18.811699 39.180935,17.092884 
	C38.723499,16.147532 38.266060,15.202181 37.808620,14.256829 
	C37.591648,14.382397 37.374676,14.507965 37.157703,14.633533 
	C37.157703,27.366598 37.157703,40.099663 36.168442,52.942230 
	C35.572590,51.296032 34.976742,49.649834 34.380890,48.003639 
	C34.168312,48.050411 33.955734,48.097187 33.743156,48.143959 
	C33.743156,56.526283 33.743156,64.908607 33.010189,73.133064 
	C32.266422,73.133064 31.522652,73.133064 30.234253,73.133064 
	C31.396393,74.766808 32.219296,75.923653 33.007294,77.825325 
	C33.479053,79.302742 33.950809,80.780159 34.422569,82.257576 
	C35.084381,80.495590 34.958515,78.802773 35.178963,77.156334 
	C35.229713,76.777283 36.468452,76.557289 37.023430,77.228485 
	C37.034576,82.470901 37.045723,87.713318 37.013462,93.479591 
	C37.423229,93.479507 37.832996,93.479431 38.441395,92.663979 
	C38.446827,89.851250 38.420490,87.038040 38.463192,84.225876 
	C38.646317,72.166985 38.849758,60.108410 39.711281,48.131317 
	C40.152370,48.073799 40.593456,48.016281 41.696793,48.030983 
	C42.714806,47.955387 43.732815,47.879787 46.093487,47.704487 
	C44.159184,47.148102 43.578598,46.981098 42.838444,46.474632 
M314.171417,88.104530 
	C317.056000,88.473976 320.243378,89.732056 322.715027,88.889748 
	C324.273682,88.358566 325.520264,84.711525 325.597473,82.418083 
	C325.914703,72.994682 325.589508,63.551296 325.797729,54.121822 
	C325.883698,50.228584 324.321991,47.562084 320.918823,46.380775 
	C317.477997,45.186398 314.905304,46.997330 312.951996,50.973972 
	C312.930084,61.749825 312.871124,72.525887 312.931946,83.301270 
	C312.939758,84.683830 313.569977,86.062881 314.171417,88.104530 
M374.101105,115.045464 
	C373.999908,97.722343 373.898682,80.399223 373.805847,62.339386 
	C369.560638,46.553692 355.573792,41.345207 342.769653,46.280998 
	C328.090698,51.939514 324.044006,72.481567 335.582001,83.234673 
	C339.108459,86.521248 344.400879,88.419113 349.217712,89.666672 
	C353.661133,90.817535 357.342194,87.535286 357.476013,83.855011 
	C357.633667,79.519272 355.359497,77.419983 350.242523,76.891983 
	C345.863617,76.440140 343.007843,73.940788 342.039337,69.677429 
	C340.993866,65.075317 342.698914,61.389702 346.833466,59.180126 
	C353.921234,55.392284 360.956390,59.995487 361.041748,68.597496 
	C361.187103,83.252800 361.079163,97.910553 361.091705,112.567268 
	C361.094788,116.175377 362.073761,119.285110 366.072296,120.181030 
	C369.776093,121.010918 372.577942,119.789070 374.101105,115.045464 
M226.573364,89.021622 
	C227.186859,88.297150 228.328308,87.577576 228.335083,86.847466 
	C228.446304,74.868706 228.469437,62.887905 228.313629,50.910145 
	C228.300720,49.917503 226.859222,48.943447 226.081482,47.960758 
	C225.633896,48.252136 225.186295,48.543510 224.738708,48.834888 
	C224.738708,57.471313 224.777573,66.108063 224.703873,74.743866 
	C224.690155,76.351875 224.647507,78.198044 223.892197,79.519257 
	C220.926483,84.707001 213.117081,87.626350 207.327881,86.002281 
	C202.500824,84.648125 200.219803,80.597595 200.197052,73.209801 
	C200.171997,65.073418 200.191345,56.936893 200.191345,47.088127 
	C198.266403,48.775093 196.550278,49.579571 196.549118,50.386509 
	C196.535049,60.192543 196.413071,70.023888 197.089432,79.795341 
	C197.459824,85.146515 201.649872,88.353912 207.086441,89.367142 
	C214.115311,90.677124 219.489792,87.447990 224.430191,82.717026 
	C224.948624,85.070984 225.356827,86.924438 226.573364,89.021622 
M138.282867,86.340988 
	C150.272934,93.089882 163.416992,89.010178 166.322861,76.770477 
	C167.670135,71.095612 167.151428,64.540176 165.798065,58.778713 
	C164.296768,52.387535 158.974319,48.752747 152.301987,47.978626 
	C144.947021,47.125301 138.533508,48.780289 133.982315,55.320328 
	C129.351990,61.974068 128.647522,79.447090 138.282867,86.340988 
M52.916245,56.578671 
	C49.333290,63.703091 49.433796,71.056900 52.096046,78.329025 
	C54.231380,84.161835 58.525448,88.112190 64.788658,89.006012 
	C71.817024,90.009041 78.588799,89.326347 83.498962,82.992706 
	C81.737076,82.799919 80.221031,83.300087 78.804543,84.001350 
	C72.781021,86.983467 66.599167,87.836273 60.836056,83.905830 
	C55.086281,79.984474 54.116318,73.818253 54.199184,66.878357 
	C64.504356,66.878357 74.417686,66.878357 84.274773,66.878357 
	C85.095383,57.836411 81.577698,51.422028 74.646942,48.808117 
	C66.752968,45.830925 58.605328,48.537556 52.916245,56.578671 
M267.968506,64.850876 
	C267.969696,67.013367 267.827820,69.186989 267.994965,71.336571 
	C269.225586,87.162071 285.852631,95.095795 298.856689,86.019112 
	C299.777985,85.376083 300.092865,83.864265 300.689697,82.756424 
	C299.567535,82.979401 298.290253,82.931015 297.348450,83.469460 
	C291.311310,86.921059 285.014130,87.936264 278.939789,84.236702 
	C272.717010,80.446739 271.670105,74.114845 272.038574,66.894142 
	C282.218201,66.894142 292.119781,66.894142 301.989594,66.894142 
	C302.393158,53.482395 294.884216,46.120079 282.808197,48.027153 
	C273.900757,49.433846 269.610565,55.551472 267.968506,64.850876 
M111.182968,84.823479 
	C116.263123,72.869293 121.343269,60.915108 126.423424,48.960922 
	C125.890587,48.583950 125.357750,48.206978 124.824913,47.830006 
	C123.575417,49.290157 121.886475,50.557732 121.148392,52.242001 
	C116.653893,62.498226 112.375687,72.849228 107.787392,83.732964 
	C103.056931,72.531631 98.711884,62.009434 94.109413,51.601063 
	C93.433632,50.072781 91.534966,49.085243 90.202110,47.847511 
	C89.825989,48.242516 89.449860,48.637520 89.073730,49.032524 
	C94.244339,61.209839 99.377113,73.403557 104.639481,85.541092 
	C105.215912,86.870621 106.537254,87.877182 107.513092,89.033546 
	C108.673874,87.882019 109.834648,86.730499 111.182968,84.823479 
M241.467834,49.898777 
	C239.992691,50.051838 238.517532,50.204903 237.042389,50.357964 
	C237.036285,50.897003 237.030167,51.436047 237.024063,51.975086 
	C239.263489,52.292797 241.502914,52.610504 243.964874,52.959789 
	C243.964874,53.914623 243.964752,54.732925 243.964890,55.551228 
	C243.966187,63.871304 243.926559,72.191681 243.987534,80.511322 
	C244.014618,84.208466 245.039383,88.271950 248.908112,88.749489 
	C252.692291,89.216606 256.745453,87.666946 260.634552,86.796944 
	C260.928589,86.731163 260.855286,85.023056 261.019653,83.429840 
	C258.765411,84.569290 257.381256,85.487305 255.860168,85.995491 
	C251.839172,87.338898 248.264984,85.478760 248.157486,81.528740 
	C247.895966,71.919609 248.072342,62.298569 248.072342,52.709103 
	C259.706604,52.196632 259.706604,52.196632 260.987671,49.756081 
	C256.536102,49.756081 252.364136,49.756081 247.752106,49.756081 
	C247.752106,44.114185 247.752106,39.083199 247.752106,34.052212 
	C247.183624,33.951286 246.615143,33.850365 246.046661,33.749439 
	C245.666321,35.321747 245.268280,36.890022 244.909180,38.467167 
	C244.047287,42.252483 243.203705,46.041962 241.467834,49.898777 
M179.549530,29.857033 
	C179.381027,30.141890 179.065567,30.426458 179.065018,30.711649 
	C179.028519,49.312050 178.972366,67.912880 179.128571,86.511902 
	C179.136963,87.512306 180.947739,88.497566 181.919495,89.489876 
	C183.006042,69.740440 183.038132,50.996040 182.900665,32.252888 
	C182.894516,31.415028 181.348068,30.588465 179.549530,29.857033 
M313.862701,25.501793 
	C313.250031,26.837358 312.236389,28.133680 312.101074,29.515972 
	C311.719818,33.411297 313.870209,35.947701 317.490509,36.782814 
	C320.993927,37.590954 323.749054,35.960281 325.061859,32.612537 
	C326.482971,28.988579 325.339874,25.627579 321.831573,24.330198 
	C319.724030,23.550827 316.905975,24.692682 313.862701,25.501793 
M28.966557,51.839905 
	C28.755846,57.766575 28.486837,63.692478 28.409437,69.620888 
	C28.399940,70.348274 29.415731,71.089050 30.403206,72.430695 
	C30.403206,63.720871 30.403206,56.044353 30.403206,48.367836 
	C30.092037,48.352100 29.780867,48.336365 29.469698,48.320629 
	C29.302801,49.189392 29.135904,50.058159 28.966557,51.839905 
M52.302231,46.597775 
	C52.121647,44.288071 51.941067,41.978363 51.760487,39.668659 
	C51.036190,39.804108 50.311890,39.939556 49.587593,40.075001 
	C50.243694,42.267845 50.899799,44.460690 52.302231,46.597775 
M323.853363,112.712311 
	C327.065186,109.865150 326.988770,108.353462 323.340302,106.553253 
	C323.340302,108.499176 323.340302,110.365288 323.853363,112.712311 
M246.082733,105.092735 
	C242.818375,104.652802 241.388947,106.259315 240.747253,110.510742 
	C243.289276,108.375923 244.962646,106.970604 246.082733,105.092735 
M67.694519,103.165398 
	C66.629601,103.739159 65.564682,104.312920 64.499756,104.886673 
	C65.057915,105.440933 65.616074,105.995193 66.174232,106.549446 
	C66.892387,105.515617 67.610550,104.481789 67.694519,103.165398 
M118.264877,109.235870 
	C115.806381,109.332405 115.806381,109.332405 117.247490,113.070946 
	C117.827797,111.716980 118.243713,110.746574 118.264877,109.235870 
M197.899353,106.090256 
	C197.055511,106.967033 196.211685,107.843819 195.367859,108.720596 
	C195.774231,109.021820 196.180618,109.323036 196.587006,109.624260 
	C196.975449,108.615990 197.363892,107.607727 197.899353,106.090256 
M86.264328,108.306808 
	C86.264328,109.524452 86.264328,110.742096 86.264328,111.959740 
	C86.851173,111.873436 87.438019,111.787140 88.024872,111.700844 
	C87.640343,110.399239 87.255814,109.097641 86.264328,108.306808 
M319.732422,113.726006 
	C320.314056,113.392097 320.895691,113.058189 321.477325,112.724289 
	C321.182190,112.412956 320.887054,112.101631 320.591919,111.790306 
	C320.127411,112.351868 319.662933,112.913437 319.732422,113.726006 
M248.253113,111.607887 
	C248.374023,110.915321 248.494934,110.222755 248.615845,109.530190 
	C248.199142,109.535904 247.782425,109.541611 247.365723,109.547318 
	C247.430954,110.261665 247.496185,110.976013 248.253113,111.607887 
M60.654186,39.241535 
	C60.376732,38.636791 60.099281,38.032047 59.821831,37.427299 
	C59.542042,37.554443 59.262253,37.681587 58.982468,37.808727 
	C59.389744,38.410301 59.797020,39.011879 60.654186,39.241535 
M245.394257,112.248734 
	C245.118362,112.438652 244.842453,112.628578 244.566559,112.818504 
	C244.767822,113.021393 244.969070,113.224274 245.170319,113.427155 
	C245.366867,113.156197 245.563400,112.885246 245.394257,112.248734 
M319.882446,108.966705 
	C319.769592,108.862335 319.669952,108.704445 319.539276,108.672188 
	C319.450531,108.650269 319.211487,108.827545 319.222046,108.876472 
	C319.323822,109.349091 319.464264,109.813377 319.593689,110.280029 
	C319.718536,110.016884 319.843414,109.753738 319.882446,108.966705 
M55.898453,39.162231 
	C55.882458,39.521027 55.811337,39.892021 55.886295,40.230682 
	C55.906998,40.324203 56.362797,40.321419 56.618961,40.362823 
	C56.553303,39.978745 56.487644,39.594666 55.898453,39.162231 
M241.582672,111.473663 
	C241.828766,111.532745 242.074875,111.591835 242.320969,111.650925 
	C242.164139,111.505943 242.007324,111.360962 241.582672,111.473663 
M62.192619,34.255333 
	C62.029663,34.372971 61.866711,34.490604 61.703754,34.608242 
	C61.931740,34.584095 62.159721,34.559944 62.192619,34.255333 
M54.630203,37.470421 
	C54.841465,37.524536 55.052727,37.578651 55.263988,37.632767 
	C55.128288,37.500286 54.992588,37.367802 54.630203,37.470421 
M63.808632,37.750484 
	C63.974827,37.630127 64.141022,37.509769 64.307213,37.389408 
	C64.074585,37.414371 63.841957,37.439335 63.808632,37.750484 
M60.796425,41.764038 
	C60.972160,41.634293 61.147896,41.504547 61.323631,41.374802 
	C61.077095,41.403362 60.830555,41.431919 60.796425,41.764038 
M63.525116,41.603901 
	C63.467480,41.830433 63.409847,42.056961 63.352207,42.283489 
	C63.495136,42.137520 63.638065,41.991550 63.525116,41.603901 
M48.599018,28.526890 
	C48.599018,28.526890 48.475876,28.607000 48.599018,28.526890 
M114.639526,112.521637 
	C114.639526,112.521637 114.442635,112.413437 114.442635,112.413437 
	C114.442635,112.413437 114.474167,112.635521 114.639526,112.521637 
z"/>
<path fill="#208ACA" opacity="1.000000" stroke="none" 
	d="
M373.839172,115.943985 
	C372.577942,119.789070 369.776093,121.010918 366.072296,120.181030 
	C362.073761,119.285110 361.094788,116.175377 361.091705,112.567268 
	C361.079163,97.910553 361.187103,83.252800 361.041748,68.597496 
	C360.956390,59.995487 353.921234,55.392284 346.833466,59.180126 
	C342.698914,61.389702 340.993866,65.075317 342.039337,69.677429 
	C343.007843,73.940788 345.863617,76.440140 350.242523,76.891983 
	C355.359497,77.419983 357.633667,79.519272 357.476013,83.855011 
	C357.342194,87.535286 353.661133,90.817535 349.217712,89.666672 
	C344.400879,88.419113 339.108459,86.521248 335.582001,83.234673 
	C324.044006,72.481567 328.090698,51.939514 342.769653,46.280998 
	C355.573792,41.345207 369.560638,46.553692 373.544678,63.024143 
	C373.199890,80.539047 373.108124,97.369171 373.067017,114.199425 
	C373.065582,114.780312 373.570343,115.362442 373.839172,115.943985 
z"/>
<path fill="#258CCB" opacity="1.000000" stroke="none" 
	d="
M313.224030,50.082863 
	C314.905304,46.997330 317.477997,45.186398 320.918823,46.380775 
	C324.321991,47.562084 325.883698,50.228584 325.797729,54.121822 
	C325.589508,63.551296 325.914703,72.994682 325.597473,82.418083 
	C325.520264,84.711525 324.273682,88.358566 322.715027,88.889748 
	C320.243378,89.732056 317.056000,88.473976 314.068298,87.272751 
	C313.979248,77.710335 314.066071,68.978912 313.970703,60.249470 
	C313.933624,56.858284 313.485138,53.471600 313.224030,50.082863 
z"/>
<path fill="#121313" opacity="1.000000" stroke="none" 
	d="
M226.169189,88.899750 
	C225.356827,86.924438 224.948624,85.070984 224.430191,82.717026 
	C219.489792,87.447990 214.115311,90.677124 207.086441,89.367142 
	C201.649872,88.353912 197.459824,85.146515 197.089432,79.795341 
	C196.413071,70.023888 196.535049,60.192543 196.549118,50.386509 
	C196.550278,49.579571 198.266403,48.775093 200.191345,47.088127 
	C200.191345,56.936893 200.171997,65.073418 200.197052,73.209801 
	C200.219803,80.597595 202.500824,84.648125 207.327881,86.002281 
	C213.117081,87.626350 220.926483,84.707001 223.892197,79.519257 
	C224.647507,78.198044 224.690155,76.351875 224.703873,74.743866 
	C224.777573,66.108063 224.738708,57.471313 224.738708,48.834888 
	C225.186295,48.543510 225.633896,48.252136 226.081482,47.960758 
	C226.859222,48.943447 228.300720,49.917503 228.313629,50.910145 
	C228.469437,62.887905 228.446304,74.868706 228.335083,86.847466 
	C228.328308,87.577576 227.186859,88.297150 226.169189,88.899750 
z"/>
<path fill="#101111" opacity="1.000000" stroke="none" 
	d="
M137.962799,86.153969 
	C128.647522,79.447090 129.351990,61.974068 133.982315,55.320328 
	C138.533508,48.780289 144.947021,47.125301 152.301987,47.978626 
	C158.974319,48.752747 164.296768,52.387535 165.798065,58.778713 
	C167.151428,64.540176 167.670135,71.095612 166.322861,76.770477 
	C163.416992,89.010178 150.272934,93.089882 137.962799,86.153969 
M136.210205,59.156895 
	C135.841415,64.229904 134.795364,69.366386 135.263504,74.360954 
	C135.955780,81.747040 141.535522,86.234917 148.733917,86.433258 
	C156.307220,86.641922 161.649857,82.463547 162.879547,74.638214 
	C163.484375,70.789108 163.458725,66.704170 162.909424,62.840977 
	C161.971771,56.246635 157.818298,51.976784 152.427856,51.093311 
	C144.977600,49.872234 140.483582,51.962437 136.210205,59.156895 
z"/>
<path fill="#0F0F0F" opacity="1.000000" stroke="none" 
	d="
M53.087662,56.245888 
	C58.605328,48.537556 66.752968,45.830925 74.646942,48.808117 
	C81.577698,51.422028 85.095383,57.836411 84.274773,66.878357 
	C74.417686,66.878357 64.504356,66.878357 54.199184,66.878357 
	C54.116318,73.818253 55.086281,79.984474 60.836056,83.905830 
	C66.599167,87.836273 72.781021,86.983467 78.804543,84.001350 
	C80.221031,83.300087 81.737076,82.799919 83.498962,82.992706 
	C78.588799,89.326347 71.817024,90.009041 64.788658,89.006012 
	C58.525448,88.112190 54.231380,84.161835 52.096046,78.329025 
	C49.433796,71.056900 49.333290,63.703091 53.087662,56.245888 
M61.307728,52.428505 
	C57.079536,55.287598 54.795151,59.187294 54.611691,64.551208 
	C63.518410,64.551208 72.123543,64.551208 80.716934,64.551208 
	C81.441734,53.505676 73.187233,48.076694 61.307728,52.428505 
z"/>
<path fill="#0D0E0E" opacity="1.000000" stroke="none" 
	d="
M267.995941,64.408958 
	C269.610565,55.551472 273.900757,49.433846 282.808197,48.027153 
	C294.884216,46.120079 302.393158,53.482395 301.989594,66.894142 
	C292.119781,66.894142 282.218201,66.894142 272.038574,66.894142 
	C271.670105,74.114845 272.717010,80.446739 278.939789,84.236702 
	C285.014130,87.936264 291.311310,86.921059 297.348450,83.469460 
	C298.290253,82.931015 299.567535,82.979401 300.689697,82.756424 
	C300.092865,83.864265 299.777985,85.376083 298.856689,86.019112 
	C285.852631,95.095795 269.225586,87.162071 267.994965,71.336571 
	C267.827820,69.186989 267.969696,67.013367 267.995941,64.408958 
M277.259460,53.581520 
	C275.215576,56.962883 273.171722,60.344246 270.657288,64.504105 
	C281.066040,64.504105 289.803406,64.504105 298.538971,64.504105 
	C298.505402,52.353481 288.806610,47.117336 277.259460,53.581520 
z"/>
<path fill="#101111" opacity="1.000000" stroke="none" 
	d="
M111.089203,85.201225 
	C109.834648,86.730499 108.673874,87.882019 107.513092,89.033546 
	C106.537254,87.877182 105.215912,86.870621 104.639481,85.541092 
	C99.377113,73.403557 94.244339,61.209839 89.073730,49.032524 
	C89.449860,48.637520 89.825989,48.242516 90.202110,47.847511 
	C91.534966,49.085243 93.433632,50.072781 94.109413,51.601063 
	C98.711884,62.009434 103.056931,72.531631 107.787392,83.732964 
	C112.375687,72.849228 116.653893,62.498226 121.148392,52.242001 
	C121.886475,50.557732 123.575417,49.290157 124.824913,47.830006 
	C125.357750,48.206978 125.890587,48.583950 126.423424,48.960922 
	C121.343269,60.915108 116.263123,72.869293 111.089203,85.201225 
z"/>
<path fill="#0E0F0F" opacity="1.000000" stroke="none" 
	d="
M241.910278,49.864269 
	C243.203705,46.041962 244.047287,42.252483 244.909180,38.467167 
	C245.268280,36.890022 245.666321,35.321747 246.046661,33.749439 
	C246.615143,33.850365 247.183624,33.951286 247.752106,34.052212 
	C247.752106,39.083199 247.752106,44.114185 247.752106,49.756081 
	C252.364136,49.756081 256.536102,49.756081 260.987671,49.756081 
	C259.706604,52.196632 259.706604,52.196632 248.072342,52.709103 
	C248.072342,62.298569 247.895966,71.919609 248.157486,81.528740 
	C248.264984,85.478760 251.839172,87.338898 255.860168,85.995491 
	C257.381256,85.487305 258.765411,84.569290 261.019653,83.429840 
	C260.855286,85.023056 260.928589,86.731163 260.634552,86.796944 
	C256.745453,87.666946 252.692291,89.216606 248.908112,88.749489 
	C245.039383,88.271950 244.014618,84.208466 243.987534,80.511322 
	C243.926559,72.191681 243.966187,63.871304 243.964890,55.551228 
	C243.964752,54.732925 243.964874,53.914623 243.964874,52.959789 
	C241.502914,52.610504 239.263489,52.292797 237.024063,51.975086 
	C237.030167,51.436047 237.036285,50.897003 237.042389,50.357964 
	C238.517532,50.204903 239.992691,50.051838 241.910278,49.864269 
z"/>
<path fill="#000101" opacity="1.000000" stroke="none" 
	d="
M180.034302,29.806835 
	C181.348068,30.588465 182.894516,31.415028 182.900665,32.252888 
	C183.038132,50.996040 183.006042,69.740440 181.919495,89.489876 
	C180.947739,88.497566 179.136963,87.512306 179.128571,86.511902 
	C178.972366,67.912880 179.028519,49.312050 179.065018,30.711649 
	C179.065567,30.426458 179.381027,30.141890 180.034302,29.806835 
z"/>
<path fill="#208ACA" opacity="1.000000" stroke="none" 
	d="
M314.134979,25.236450 
	C316.905975,24.692682 319.724030,23.550827 321.831573,24.330198 
	C325.339874,25.627579 326.482971,28.988579 325.061859,32.612537 
	C323.749054,35.960281 320.993927,37.590954 317.490509,36.782814 
	C313.870209,35.947701 311.719818,33.411297 312.101074,29.515972 
	C312.236389,28.133680 313.250031,26.837358 314.134979,25.236450 
z"/>
<path fill="#0274B4" opacity="1.000000" stroke="none" 
	d="
M37.056870,92.955734 
	C37.045723,87.713318 37.034576,82.470901 37.019028,76.372101 
	C37.023655,72.853264 37.032688,70.190796 37.029522,67.022858 
	C37.025452,65.168892 37.033577,63.820408 37.015495,62.179855 
	C37.006111,61.106686 37.022923,60.325584 37.036667,59.022293 
	C37.035667,58.151970 37.037735,57.803844 37.014427,57.116638 
	C37.045273,55.462616 37.101490,54.147671 37.157707,52.832729 
	C37.157703,40.099663 37.157703,27.366598 37.157703,14.633533 
	C37.374676,14.507965 37.591648,14.382397 37.808620,14.256829 
	C38.266060,15.202181 38.723499,16.147532 39.104706,17.792402 
	C38.833099,19.426908 38.637714,20.361897 38.442055,21.745728 
	C38.604061,30.487814 38.766350,38.781055 38.914223,47.323372 
	C38.899803,47.572449 39.045792,48.049721 39.045792,48.049721 
	C38.849758,60.108410 38.646317,72.166985 38.463192,84.225876 
	C38.420490,87.038040 38.446827,89.851250 38.045555,92.939369 
	C37.452103,93.128426 37.254486,93.042084 37.056870,92.955734 
z"/>
<path fill="#056AB0" opacity="1.000000" stroke="none" 
	d="
M37.041718,67.528336 
	C37.032688,70.190796 37.023655,72.853264 37.087555,75.889915 
	C36.468452,76.557289 35.229713,76.777283 35.178963,77.156334 
	C34.958515,78.802773 35.084381,80.495590 34.422569,82.257576 
	C33.950809,80.780159 33.479053,79.302742 33.311127,77.334595 
	C33.657692,75.659561 33.700424,74.475243 33.743156,73.290932 
	C33.743156,64.908607 33.743156,56.526283 33.743156,48.143959 
	C33.955734,48.097187 34.168312,48.050411 34.380890,48.003639 
	C34.976742,49.649834 35.572590,51.296032 36.663074,52.887482 
	C37.101490,54.147671 37.045273,55.462616 36.450951,57.130478 
	C36.288479,58.170425 36.664104,58.857456 37.039734,59.544483 
	C37.022923,60.325584 37.006111,61.106686 36.563881,61.928497 
	C34.832115,64.083427 33.424568,66.214088 37.041718,67.528336 
z"/>
<path fill="#FCFDFE" opacity="1.000000" stroke="none" 
	d="
M38.928635,47.074299 
	C38.766350,38.781055 38.604061,30.487814 38.769112,21.691065 
	C39.744919,21.295118 40.393391,21.402679 41.041859,21.510239 
	C41.041859,21.510239 40.988018,21.620871 40.938984,22.165348 
	C40.875389,30.765661 40.860828,38.821499 40.526184,46.905861 
	C39.780277,46.981026 39.354458,47.027664 38.928635,47.074299 
z"/>
<path fill="#0083C8" opacity="1.000000" stroke="none" 
	d="
M373.970154,115.494720 
	C373.570343,115.362442 373.065582,114.780312 373.067017,114.199425 
	C373.108124,97.369171 373.199890,80.539047 373.540466,63.392502 
	C373.898682,80.399223 373.999908,97.722343 373.970154,115.494720 
z"/>
<path fill="#7EAED1" opacity="1.000000" stroke="none" 
	d="
M28.967781,51.383415 
	C29.135904,50.058159 29.302801,49.189392 29.469698,48.320629 
	C29.780867,48.336365 30.092037,48.352100 30.403206,48.367836 
	C30.403206,56.044353 30.403206,63.720871 30.403206,72.430695 
	C29.415731,71.089050 28.399940,70.348274 28.409437,69.620888 
	C28.486837,63.692478 28.755846,57.766575 28.967781,51.383415 
z"/>
<path fill="#F3F8FB" opacity="1.000000" stroke="none" 
	d="
M12.996894,52.943802 
	C13.797485,52.044285 14.598076,51.144764 15.724092,50.434273 
	C16.409693,51.096249 16.769869,51.569191 17.043158,52.390732 
	C16.984722,53.456871 17.013172,54.174412 17.062521,55.087708 
	C17.397112,55.353783 17.710808,55.424107 18.052269,55.318798 
	C18.080036,55.143169 18.412802,55.017735 18.412802,55.017735 
	C18.768097,55.010902 19.123392,55.004070 19.739044,54.997787 
	C19.999399,54.998333 20.004786,54.987923 19.998196,55.337334 
	C19.971939,56.152138 19.952272,56.617535 19.581926,57.135746 
	C18.812178,58.466019 18.393112,59.743477 17.963085,61.271568 
	C17.946819,61.689369 17.941515,61.856537 17.936209,62.023705 
	C17.936209,62.023705 17.559967,62.011444 17.297419,61.645218 
	C16.684505,60.997700 16.334139,60.716408 15.893688,60.239326 
	C15.548628,59.532291 15.293651,59.021049 15.204155,58.040138 
	C14.745726,57.033398 14.121815,56.496338 13.435083,55.660957 
	C13.247139,54.556355 13.122016,53.750080 12.996894,52.943802 
z"/>
<path fill="#0081C7" opacity="1.000000" stroke="none" 
	d="
M313.088013,50.528419 
	C313.485138,53.471600 313.933624,56.858284 313.970703,60.249470 
	C314.066071,68.978912 313.979248,77.710335 313.938538,86.942261 
	C313.569977,86.062881 312.939758,84.683830 312.931946,83.301270 
	C312.871124,72.525887 312.930084,61.749825 313.088013,50.528419 
z"/>
<path fill="#036DB1" opacity="1.000000" stroke="none" 
	d="
M40.846268,46.877335 
	C40.860828,38.821499 40.875389,30.765661 40.917603,22.223034 
	C41.524681,22.793406 42.605717,23.852369 42.601929,24.907438 
	C42.577793,31.631918 42.314648,38.355541 42.141785,45.788963 
	C42.434910,46.603683 42.716461,46.708889 42.998013,46.814095 
	C43.578598,46.981098 44.159184,47.148102 46.093487,47.704487 
	C43.732815,47.879787 42.714806,47.955387 41.314922,47.725163 
	C40.904125,47.238674 40.875195,47.058002 40.846268,46.877335 
z"/>
<path fill="#E1ECF4" opacity="1.000000" stroke="none" 
	d="
M15.038673,58.509811 
	C15.293651,59.021049 15.548628,59.532291 15.797081,60.673882 
	C15.008506,61.536934 14.226454,61.769630 13.349890,61.949112 
	C13.255378,61.895893 12.998852,61.551086 13.210766,61.191864 
	C12.938828,60.209274 12.454975,59.585903 12.000770,58.969040 
	C12.030417,58.975544 12.028461,59.036221 11.966230,58.762280 
	C11.589888,58.318974 11.275775,58.149609 10.989454,57.980728 
	C11.017246,57.981216 11.020177,58.036732 10.969988,57.735390 
	C10.532664,57.639290 10.145528,57.844524 9.477212,58.009167 
	C9.009868,57.933731 8.823705,57.898888 8.616379,57.660408 
	C8.384841,57.279301 8.181008,57.094608 7.983717,56.902695 
	C9.414610,55.605331 10.845504,54.307968 12.636645,52.977203 
	C13.122016,53.750080 13.247139,54.556355 13.555183,56.028763 
	C14.171628,57.299866 14.605151,57.904839 15.038673,58.509811 
z"/>
<path fill="#EBF2F8" opacity="1.000000" stroke="none" 
	d="
M23.015921,47.983585 
	C24.119091,48.530346 26.017300,48.900246 26.185209,49.655056 
	C26.845705,52.624241 26.961752,55.714542 26.806164,58.787598 
	C25.725082,56.015743 24.644003,53.243893 23.291618,49.905396 
	C23.018848,48.887032 23.017385,48.435307 23.015921,47.983585 
z"/>
<path fill="#E4EEF5" opacity="1.000000" stroke="none" 
	d="
M70.859276,33.857685 
	C75.398766,39.581963 68.109016,38.348667 66.550316,40.576321 
	C67.355560,38.326389 68.160797,36.076462 69.211464,33.524250 
	C69.924347,33.433872 70.391815,33.645779 70.859276,33.857685 
z"/>
<path fill="#E1ECF4" opacity="1.000000" stroke="none" 
	d="
M71.000610,33.571213 
	C70.391815,33.645779 69.924347,33.433872 69.207756,33.148293 
	C68.319221,32.298428 67.679817,31.522238 67.166489,30.235584 
	C67.498283,28.805363 67.704010,27.885605 67.909729,26.965847 
	C69.658409,28.728777 74.731468,28.791235 71.000610,33.571213 
z"/>
<path fill="#DEEAF3" opacity="1.000000" stroke="none" 
	d="
M18.108435,62.329712 
	C17.941515,61.856537 17.946819,61.689369 18.221931,61.163570 
	C18.981998,60.541492 19.472258,60.278049 20.223034,60.021049 
	C20.657112,60.019718 20.830669,60.011936 21.002266,60.002232 
	C21.000305,60.000305 20.999453,59.999432 20.993595,60.340691 
	C21.088102,61.539867 21.188469,62.397781 21.451447,64.645691 
	C22.332024,62.564930 22.667402,61.772446 23.002781,60.979961 
	C23.384792,62.414146 23.766808,63.848335 24.148821,65.282516 
	C23.739208,65.571671 23.329597,65.860817 22.919985,66.149963 
	C21.373545,64.978554 19.827103,63.807137 18.108435,62.329712 
z"/>
<path fill="#DAE8F3" opacity="1.000000" stroke="none" 
	d="
M12.985032,63.970299 
	C11.771935,64.519958 10.247892,65.786049 9.427838,65.430130 
	C8.493327,65.024529 8.186634,63.172413 8.202053,61.667755 
	C9.048427,61.256058 9.299829,61.125580 9.658033,61.034256 
	C9.764835,61.073418 9.994012,61.451439 9.966922,61.825787 
	C10.954898,62.790188 11.969965,63.380245 12.985032,63.970299 
z"/>
<path fill="#EAF2F8" opacity="1.000000" stroke="none" 
	d="
M51.929070,46.625652 
	C50.899799,44.460690 50.243694,42.267845 49.587593,40.075001 
	C50.311890,39.939556 51.036190,39.804108 51.760487,39.668659 
	C51.941067,41.978363 52.121647,44.288071 51.929070,46.625652 
z"/>
<path fill="#E1ECF4" opacity="1.000000" stroke="none" 
	d="
M55.002872,32.997166 
	C54.013306,32.510452 53.023743,32.023743 51.769630,31.406912 
	C51.769630,32.726517 51.769630,33.925137 51.769630,35.729279 
	C50.590858,33.862278 49.764412,32.553307 48.687950,30.848351 
	C51.432953,30.037413 53.891056,27.906349 54.984665,32.654942 
	C55.000000,33.000000 55.002872,32.997166 55.002872,32.997166 
z"/>
<path fill="#EBEBEB" opacity="1.000000" stroke="none" 
	d="
M323.596832,112.471855 
	C323.340302,110.365288 323.340302,108.499176 323.340302,106.553253 
	C326.988770,108.353462 327.065186,109.865150 323.596832,112.471855 
z"/>
<path fill="#EDF4F9" opacity="1.000000" stroke="none" 
	d="
M9.994013,61.451439 
	C9.994012,61.451439 9.764835,61.073418 9.422486,60.802162 
	C8.932605,59.641953 8.785073,58.752998 8.637541,57.864048 
	C8.823705,57.898888 9.009868,57.933731 9.794244,58.156624 
	C10.601697,58.242027 10.810937,58.139381 11.020177,58.036732 
	C11.020177,58.036732 11.017246,57.981216 10.922892,58.345970 
	C11.228511,58.819221 11.628486,58.927723 12.028461,59.036221 
	C12.028461,59.036221 12.030417,58.975544 11.829147,59.323448 
	C12.084867,60.297932 12.541860,60.924511 12.998852,61.551086 
	C12.998852,61.551086 13.255378,61.895893 13.556717,62.160664 
	C13.907493,62.616257 13.956929,62.807076 14.006365,62.997894 
	C13.831790,63.001282 13.657214,63.004669 12.896175,62.916935 
	C11.537812,62.367683 10.765913,61.909561 9.994013,61.451439 
z"/>
<path fill="#D9D9D9" opacity="1.000000" stroke="none" 
	d="
M246.359375,105.329010 
	C244.962646,106.970604 243.289276,108.375923 240.747253,110.510742 
	C241.388947,106.259315 242.818375,104.652802 246.359375,105.329010 
z"/>
<path fill="#DEEAF3" opacity="1.000000" stroke="none" 
	d="
M22.680386,47.982803 
	C23.017385,48.435307 23.018848,48.887032 23.018112,49.677704 
	C21.453390,50.533546 19.890871,51.050434 17.929422,51.818581 
	C17.530493,52.069832 17.130043,52.042133 17.130043,52.042133 
	C16.769869,51.569191 16.409693,51.096249 16.024918,50.311729 
	C18.115160,49.327446 20.230007,48.654736 22.680386,47.982803 
z"/>
<path fill="#EBEBEB" opacity="1.000000" stroke="none" 
	d="
M112.146812,106.824066 
	C112.459198,108.711349 112.771591,110.598633 113.083977,112.485916 
	C112.545685,112.559143 112.007385,112.632370 111.469093,112.705597 
	C109.890167,111.287903 108.907471,109.772606 111.701782,107.338219 
	C111.993912,106.989647 112.146812,106.824066 112.146812,106.824066 
z"/>
<path fill="#EAF2F8" opacity="1.000000" stroke="none" 
	d="
M44.999847,37.000000 
	C44.999847,34.844105 44.999847,32.688206 44.999847,30.532309 
	C45.533527,30.501371 46.067207,30.470434 46.600887,30.439497 
	C46.743427,32.336376 46.885963,34.233257 46.691666,36.563591 
	C45.903172,36.998035 45.451508,36.999020 44.999847,37.000000 
z"/>
<path fill="#F3F8FB" opacity="1.000000" stroke="none" 
	d="
M67.558670,26.981071 
	C67.704010,27.885605 67.498283,28.805363 67.018074,29.969810 
	C66.375961,30.158764 66.008324,30.103031 65.004150,30.010632 
	C63.895725,29.927191 63.423843,29.880423 62.951962,29.833652 
	C64.370506,28.887867 65.789047,27.942081 67.558670,26.981071 
z"/>
<path fill="#D9D9D9" opacity="1.000000" stroke="none" 
	d="
M68.011612,103.306686 
	C67.610550,104.481789 66.892387,105.515617 66.174232,106.549446 
	C65.616074,105.995193 65.057915,105.440933 64.499756,104.886673 
	C65.564682,104.312920 66.629601,103.739159 68.011612,103.306686 
z"/>
<path fill="#EBEBEB" opacity="1.000000" stroke="none" 
	d="
M118.462250,109.506012 
	C118.243713,110.746574 117.827797,111.716980 117.247490,113.070946 
	C115.806381,109.332405 115.806381,109.332405 118.462250,109.506012 
z"/>
<path fill="#E1ECF4" opacity="1.000000" stroke="none" 
	d="
M54.998611,33.001369 
	C56.351402,33.232872 57.705578,33.463009 59.059757,33.693142 
	C58.841354,34.337013 58.622952,34.980885 58.404549,35.624752 
	C57.267017,34.965637 56.129486,34.306522 54.997414,33.322289 
	C55.002872,32.997166 55.000000,33.000000 54.998611,33.001369 
z"/>
<path fill="#303131" opacity="1.000000" stroke="none" 
	d="
M197.825851,106.344856 
	C197.363892,107.607727 196.975449,108.615990 196.587006,109.624260 
	C196.180618,109.323036 195.774231,109.021820 195.367859,108.720596 
	C196.211685,107.843819 197.055511,106.967033 197.825851,106.344856 
z"/>
<path fill="#EAF2F8" opacity="1.000000" stroke="none" 
	d="
M48.006596,40.999695 
	C48.145840,43.164837 48.285084,45.329979 48.424328,47.495121 
	C48.055637,47.526535 47.686947,47.557945 47.318260,47.589355 
	C47.206722,45.674873 47.095188,43.760391 47.241798,41.422688 
	C47.668831,40.999542 47.837715,40.999619 48.006596,40.999695 
z"/>
<path fill="#EDF4F9" opacity="1.000000" stroke="none" 
	d="
M33.376671,73.211998 
	C33.700424,74.475243 33.657692,75.659561 33.328579,76.962181 
	C32.219296,75.923653 31.396393,74.766808 30.234253,73.133064 
	C31.522652,73.133064 32.266422,73.133064 33.376671,73.211998 
z"/>
<path fill="#696A6A" opacity="1.000000" stroke="none" 
	d="
M86.567810,108.051422 
	C87.255814,109.097641 87.640343,110.399239 88.024872,111.700844 
	C87.438019,111.787140 86.851173,111.873436 86.264328,111.959740 
	C86.264328,110.742096 86.264328,109.524452 86.567810,108.051422 
z"/>
<path fill="#1176B5" opacity="1.000000" stroke="none" 
	d="
M14.300108,63.152466 
	C13.956929,62.807076 13.907493,62.616257 13.651229,62.213882 
	C14.226454,61.769630 15.008506,61.536934 15.887165,60.869675 
	C16.334139,60.716408 16.684505,60.997700 17.110081,61.627022 
	C16.697302,62.912369 16.209312,63.849678 15.721321,64.786987 
	C15.345496,64.293671 14.969674,63.800354 14.300108,63.152466 
z"/>
<path fill="#EBF3F9" opacity="1.000000" stroke="none" 
	d="
M48.004005,40.634712 
	C47.837715,40.999619 47.668831,40.999542 47.246544,40.999580 
	C46.360287,39.885712 45.727444,38.771732 45.047222,37.328873 
	C45.451508,36.999020 45.903172,36.998035 46.694176,36.993294 
	C47.356152,38.082939 47.678783,39.176334 48.004005,40.634712 
z"/>
<path fill="#DEEAF3" opacity="1.000000" stroke="none" 
	d="
M22.079327,54.922409 
	C22.401567,56.361698 22.723808,57.800983 22.696327,59.628201 
	C21.897552,60.010563 21.448502,60.004997 20.999453,59.999432 
	C20.999453,59.999432 21.000305,60.000305 21.015892,59.636776 
	C21.332720,57.869877 21.633963,56.466503 21.971220,55.027935 
	C22.007235,54.992737 22.079327,54.922409 22.079327,54.922409 
z"/>
<path fill="#4690C2" opacity="1.000000" stroke="none" 
	d="
M8.616379,57.660408 
	C8.785073,58.752998 8.932605,59.641953 9.315683,60.763000 
	C9.299829,61.125580 9.048427,61.256058 8.372240,61.378616 
	C7.748096,59.975185 7.548738,58.579674 7.666549,57.043427 
	C8.181008,57.094608 8.384841,57.279301 8.616379,57.660408 
z"/>
<path fill="#EBF2F8" opacity="1.000000" stroke="none" 
	d="
M20.993595,60.340691 
	C21.448502,60.004997 21.897552,60.010563 22.683815,60.019119 
	C23.021030,60.022110 23.013069,60.501312 23.007925,60.740639 
	C22.667402,61.772446 22.332024,62.564930 21.451447,64.645691 
	C21.188469,62.397781 21.088102,61.539867 20.993595,60.340691 
z"/>
<path fill="#EBEBEB" opacity="1.000000" stroke="none" 
	d="
M319.465424,113.600510 
	C319.662933,112.913437 320.127411,112.351868 320.591919,111.790306 
	C320.887054,112.101631 321.182190,112.412956 321.477325,112.724289 
	C320.895691,113.058189 320.314056,113.392097 319.465424,113.600510 
z"/>
<path fill="#D9D9D9" opacity="1.000000" stroke="none" 
	d="
M247.907257,111.649124 
	C247.496185,110.976013 247.430954,110.261665 247.365723,109.547318 
	C247.782425,109.541611 248.199142,109.535904 248.615845,109.530190 
	C248.494934,110.222755 248.374023,110.915321 247.907257,111.649124 
z"/>
<path fill="#82B0D2" opacity="1.000000" stroke="none" 
	d="
M41.024361,21.157984 
	C40.393391,21.402679 39.744919,21.295118 38.769394,21.242222 
	C38.637714,20.361897 38.833099,19.426908 39.236572,18.153301 
	C39.965393,18.811699 40.486126,19.808714 41.024361,21.157984 
z"/>
<path fill="#E4EEF5" opacity="1.000000" stroke="none" 
	d="
M62.673508,29.894468 
	C63.423843,29.880423 63.895725,29.927191 64.724052,29.994980 
	C64.395081,30.519680 63.709671,31.023357 63.024254,31.527039 
	C62.814522,31.003120 62.604790,30.479202 62.673508,29.894468 
z"/>
<path fill="#DEEAF3" opacity="1.000000" stroke="none" 
	d="
M20.005663,54.996758 
	C20.232698,54.214828 20.453470,53.434475 20.674244,52.654121 
	C21.113768,53.201225 21.553293,53.748329 22.036072,54.608921 
	C22.079327,54.922409 22.007235,54.992737 21.650702,55.009010 
	C20.864374,55.012829 20.434580,55.000378 20.004786,54.987923 
	C20.004786,54.987923 19.999399,54.998333 20.005663,54.996758 
z"/>
<path fill="#E1ECF4" opacity="1.000000" stroke="none" 
	d="
M60.429241,39.427494 
	C59.797020,39.011879 59.389744,38.410301 58.982468,37.808727 
	C59.262253,37.681587 59.542042,37.554443 59.821831,37.427299 
	C60.099281,38.032047 60.376732,38.636791 60.429241,39.427494 
z"/>
<path fill="#4690C2" opacity="1.000000" stroke="none" 
	d="
M9.966923,61.825783 
	C10.765913,61.909561 11.537812,62.367683 12.634262,62.917702 
	C12.958814,63.009598 13.056328,63.487656 13.020679,63.728977 
	C11.969965,63.380245 10.954898,62.790188 9.966923,61.825783 
z"/>
<path fill="#F0F6FA" opacity="1.000000" stroke="none" 
	d="
M58.015450,44.055176 
	C57.566566,44.556850 57.117680,45.058525 56.668793,45.560204 
	C56.594296,45.146744 56.519794,44.733288 56.941086,44.165539 
	C57.629738,44.025894 57.822594,44.040535 58.015450,44.055176 
z"/>
<path fill="#D9D9D9" opacity="1.000000" stroke="none" 
	d="
M245.577103,112.431519 
	C245.563400,112.885246 245.366867,113.156197 245.170319,113.427155 
	C244.969070,113.224274 244.767822,113.021393 244.566559,112.818504 
	C244.842453,112.628578 245.118362,112.438652 245.577103,112.431519 
z"/>
<path fill="#EBEBEB" opacity="1.000000" stroke="none" 
	d="
M319.925354,109.228653 
	C319.843414,109.753738 319.718536,110.016884 319.593689,110.280037 
	C319.464264,109.813377 319.323822,109.349091 319.222046,108.876472 
	C319.211487,108.827545 319.450531,108.650269 319.539276,108.672188 
	C319.669952,108.704445 319.769592,108.862335 319.925354,109.228653 
z"/>
<path fill="#1176B5" opacity="1.000000" stroke="none" 
	d="
M17.043158,52.390732 
	C17.130043,52.042133 17.530493,52.069832 17.728062,52.104980 
	C18.006765,52.868187 18.087898,53.596252 18.290916,54.671024 
	C18.412802,55.017735 18.080036,55.143169 17.799065,55.180054 
	C17.359268,55.108612 17.200447,55.000282 17.041624,54.891956 
	C17.013172,54.174412 16.984722,53.456871 17.043158,52.390732 
z"/>
<path fill="#E1ECF4" opacity="1.000000" stroke="none" 
	d="
M56.160217,39.186409 
	C56.487644,39.594666 56.553303,39.978745 56.618961,40.362823 
	C56.362797,40.321419 55.906998,40.324203 55.886295,40.230682 
	C55.811337,39.892021 55.882458,39.521027 56.160217,39.186409 
z"/>
<path fill="#D9D9D9" opacity="1.000000" stroke="none" 
	d="
M241.716583,111.344826 
	C242.007324,111.360962 242.164139,111.505943 242.320969,111.650925 
	C242.074875,111.591835 241.828766,111.532745 241.716583,111.344826 
z"/>
<path fill="#E4EEF5" opacity="1.000000" stroke="none" 
	d="
M62.290161,34.395561 
	C62.159721,34.559944 61.931740,34.584095 61.703754,34.608242 
	C61.866711,34.490604 62.029663,34.372971 62.290161,34.395561 
z"/>
<path fill="#E1ECF4" opacity="1.000000" stroke="none" 
	d="
M54.743546,37.352871 
	C54.992588,37.367802 55.128288,37.500286 55.263988,37.632767 
	C55.052727,37.578651 54.841465,37.524536 54.743546,37.352871 
z"/>
<path fill="#E4EEF5" opacity="1.000000" stroke="none" 
	d="
M63.708981,37.607391 
	C63.841957,37.439335 64.074585,37.414371 64.307213,37.389412 
	C64.141022,37.509769 63.974827,37.630127 63.708981,37.607391 
z"/>
<path fill="#E1ECF4" opacity="1.000000" stroke="none" 
	d="
M60.690224,41.612259 
	C60.830555,41.431919 61.077095,41.403362 61.323631,41.374802 
	C61.147896,41.504547 60.972160,41.634293 60.690224,41.612259 
z"/>
<path fill="#F3F8FB" opacity="1.000000" stroke="none" 
	d="
M63.653053,41.724739 
	C63.638065,41.991550 63.495136,42.137520 63.352211,42.283489 
	C63.409847,42.056961 63.467480,41.830433 63.653053,41.724739 
z"/>
<path fill="#82B0D2" opacity="1.000000" stroke="none" 
	d="
M40.526184,46.905861 
	C40.875195,47.058002 40.904125,47.238674 40.983799,47.689056 
	C40.593456,48.016281 40.152370,48.073799 39.378536,48.090519 
	C39.045792,48.049721 38.899803,47.572449 38.914219,47.323372 
	C39.354458,47.027664 39.780277,46.981026 40.526184,46.905861 
z"/>
<path fill="#82B0D2" opacity="1.000000" stroke="none" 
	d="
M37.035164,93.217667 
	C37.254486,93.042084 37.452103,93.128426 37.946243,93.347061 
	C37.832996,93.479431 37.423229,93.479507 37.035164,93.217667 
z"/>
<path fill="#EBEBEB" opacity="1.000000" stroke="none" 
	d="
M111.911476,107.066483 
	C111.735870,106.918259 111.642700,106.693199 111.549522,106.468140 
	C111.676605,106.496048 111.803680,106.523956 112.038788,106.687973 
	C112.146812,106.824066 111.993912,106.989647 111.911476,107.066483 
z"/>
<path fill="#E1ECF4" opacity="1.000000" stroke="none" 
	d="
M57.942787,43.847939 
	C57.822594,44.040535 57.629738,44.025894 57.147095,43.978268 
	C57.194912,43.843758 57.532516,43.742233 57.942787,43.847939 
z"/>
<path fill="#EBF3F9" opacity="1.000000" stroke="none" 
	d="
M42.918228,46.644363 
	C42.716461,46.708889 42.434910,46.603683 42.208771,46.253551 
	C42.507675,46.099800 42.699093,46.255135 42.918228,46.644363 
z"/>
<path fill="#E1ECF4" opacity="1.000000" stroke="none" 
	d="
M48.537445,28.566944 
	C48.475876,28.607000 48.599018,28.526890 48.537445,28.566944 
z"/>
<path fill="#EBEBEB" opacity="1.000000" stroke="none" 
	d="
M114.556847,112.578583 
	C114.474167,112.635521 114.442635,112.413437 114.442635,112.413437 
	C114.442635,112.413437 114.639526,112.521637 114.556847,112.578583 
z"/>
<path fill="#FCFCFC" opacity="1.000000" stroke="none" 
	d="
M136.402206,58.807270 
	C140.483582,51.962437 144.977600,49.872234 152.427856,51.093311 
	C157.818298,51.976784 161.971771,56.246635 162.909424,62.840977 
	C163.458725,66.704170 163.484375,70.789108 162.879547,74.638214 
	C161.649857,82.463547 156.307220,86.641922 148.733917,86.433258 
	C141.535522,86.234917 135.955780,81.747040 135.263504,74.360954 
	C134.795364,69.366386 135.841415,64.229904 136.402206,58.807270 
z"/>
<path fill="#F3F3F3" opacity="1.000000" stroke="none" 
	d="
M61.661896,52.246830 
	C73.187233,48.076694 81.441734,53.505676 80.716934,64.551208 
	C72.123543,64.551208 63.518410,64.551208 54.611691,64.551208 
	C54.795151,59.187294 57.079536,55.287598 61.661896,52.246830 
z"/>
<path fill="#F3F3F3" opacity="1.000000" stroke="none" 
	d="
M277.564819,53.348343 
	C288.806610,47.117336 298.505402,52.353481 298.538971,64.504105 
	C289.803406,64.504105 281.066040,64.504105 270.657288,64.504105 
	C273.171722,60.344246 275.215576,56.962883 277.564819,53.348343 
z"/>
<path fill="#F6FAFC" opacity="1.000000" stroke="none" 
	d="
M37.029522,67.022858 
	C33.424568,66.214088 34.832115,64.083427 36.590084,62.220566 
	C37.033577,63.820408 37.025452,65.168892 37.029522,67.022858 
z"/>
<path fill="#EDF4F9" opacity="1.000000" stroke="none" 
	d="
M37.036667,59.022293 
	C36.664104,58.857456 36.288479,58.170425 36.476326,57.469559 
	C37.037735,57.803844 37.035667,58.151970 37.036667,59.022293 
z"/>
<path fill="#FDFDFD" opacity="1.000000" stroke="none" 
	d="
M19.998196,55.337334 
	C20.434580,55.000378 20.864374,55.012829 21.614687,55.044209 
	C21.633963,56.466503 21.332720,57.869877 21.017853,59.638702 
	C20.830669,60.011936 20.657112,60.019718 20.252010,59.653637 
	C19.991180,58.547497 19.961893,57.815212 19.932608,57.082932 
	C19.952272,56.617535 19.971939,56.152138 19.998196,55.337334 
z"/>
<path fill="#DAE8F3" opacity="1.000000" stroke="none" 
	d="
M19.581926,57.135746 
	C19.961893,57.815212 19.991180,58.547497 19.991489,59.647190 
	C19.472258,60.278049 18.981998,60.541492 18.232893,60.912933 
	C18.393112,59.743477 18.812178,58.466019 19.581926,57.135746 
z"/>
<path fill="#4690C2" opacity="1.000000" stroke="none" 
	d="
M15.204155,58.040138 
	C14.605151,57.904839 14.171628,57.299866 13.618005,56.327087 
	C14.121815,56.496338 14.745726,57.033398 15.204155,58.040138 
z"/>
<path fill="#DEEAF3" opacity="1.000000" stroke="none" 
	d="
M17.062521,55.087708 
	C17.200447,55.000282 17.359268,55.108612 17.771297,55.355682 
	C17.710808,55.424107 17.397112,55.353783 17.062521,55.087708 
z"/>
<path fill="#4690C2" opacity="1.000000" stroke="none" 
	d="
M13.210766,61.191864 
	C12.541860,60.924511 12.084867,60.297932 11.799500,59.316944 
	C12.454975,59.585903 12.938828,60.209274 13.210766,61.191864 
z"/>
<path fill="#4690C2" opacity="1.000000" stroke="none" 
	d="
M10.969988,57.735390 
	C10.810937,58.139381 10.601697,58.242027 10.075424,58.197220 
	C10.145528,57.844524 10.532664,57.639290 10.969988,57.735390 
z"/>
<path fill="#4690C2" opacity="1.000000" stroke="none" 
	d="
M11.966230,58.762280 
	C11.628486,58.927723 11.228511,58.819221 10.895100,58.345482 
	C11.275775,58.149609 11.589888,58.318974 11.966230,58.762280 
z"/>
</svg>